<svg width="18" height="18" viewBox="0 0 18 18" fill="none" xmlns="http://www.w3.org/2000/svg">
<g clip-path="url(#clip0_1_614)">
<path d="M3.1022 5.46399V4.01899C3.15886 3.06699 3.44503 2.33599 3.9607 1.82599C4.47636 1.31599 5.19886 1.061 6.1282 1.061C7.05753 1.061 7.78003 1.31883 8.2957 1.83449C8.81136 2.35016 9.0862 3.08966 9.1202 4.05299V5.46399H10.3612C10.7579 5.46399 11.0922 5.59999 11.3642 5.87199C11.6362 6.144 11.7722 6.47833 11.7722 6.875V15.375C11.7722 15.7603 11.6362 16.0918 11.3642 16.3695C11.0922 16.6472 10.7579 16.786 10.3612 16.786H1.8612C1.47586 16.786 1.14436 16.6472 0.866695 16.3695C0.589029 16.0918 0.450195 15.7603 0.450195 15.375V6.875C0.450195 6.47833 0.589029 6.144 0.866695 5.87199C1.14436 5.59999 1.47586 5.46399 1.8612 5.46399H3.1022ZM4.1562 5.46399H8.0662V4.06999C8.0322 3.38999 7.8622 2.89416 7.5562 2.58249C7.2502 2.27083 6.7742 2.115 6.1282 2.115C5.4822 2.115 5.00336 2.27083 4.6917 2.58249C4.38003 2.89416 4.20153 3.38433 4.1562 4.05299V5.46399ZM3.1022 6.51799H1.8612C1.7592 6.51799 1.6742 6.552 1.6062 6.62C1.5382 6.68799 1.5042 6.77299 1.5042 6.875V15.375C1.5042 15.477 1.5382 15.562 1.6062 15.63C1.6742 15.698 1.7592 15.732 1.8612 15.732H10.3612C10.4632 15.732 10.5482 15.698 10.6162 15.63C10.6842 15.562 10.7182 15.477 10.7182 15.375V6.875C10.7182 6.77299 10.6842 6.68799 10.6162 6.62C10.5482 6.552 10.4632 6.51799 10.3612 6.51799H9.1202V8.21799C9.1202 8.36533 9.0692 8.49 8.9672 8.592C8.8652 8.694 8.74053 8.745 8.5932 8.745C8.44586 8.745 8.3212 8.694 8.2192 8.592C8.1172 8.49 8.0662 8.36533 8.0662 8.21799V6.51799H4.1562V8.21799C4.1562 8.36533 4.1052 8.49 4.0032 8.592C3.9012 8.694 3.77653 8.745 3.6292 8.745C3.48186 8.745 3.3572 8.694 3.2552 8.592C3.1532 8.49 3.1022 8.36533 3.1022 8.21799V6.51799Z" fill="#4D4848"/>
</g>
<defs>
<clipPath id="clip0_1_614">
<rect width="17" height="17" fill="white" transform="matrix(1 0 0 -1 0.450195 17.5)"/>
</clipPath>
</defs>
</svg>
