<svg width="51" height="51" viewBox="0 0 51 51" fill="none" xmlns="http://www.w3.org/2000/svg">
<rect x="0.279785" y="0.5" width="50" height="50" rx="25" fill="black"/>
<path d="M37.4892 25.625C37.4892 31.6797 33.0458 36.709 27.2353 37.5879V29.1406H30.0673L30.6044 25.625H27.2353V23.3789C27.2353 22.4023 27.7235 21.4746 29.2372 21.4746H30.7509V18.4961C30.7509 18.4961 29.3837 18.252 28.0165 18.252C25.2821 18.252 23.4755 19.9609 23.4755 22.9883V25.625H20.3993V29.1406H23.4755V37.5879C17.6649 36.709 13.2704 31.6797 13.2704 25.625C13.2704 18.9355 18.6903 13.5156 25.3798 13.5156C32.0692 13.5156 37.4892 18.9355 37.4892 25.625Z" fill="white"/>
</svg>
