<svg width="51" height="51" viewBox="0 0 51 51" fill="none" xmlns="http://www.w3.org/2000/svg">
<rect x="0.279785" y="0.5" width="50" height="50" rx="25" fill="black"/>
<path d="M32.997 17.9102C35.0478 19.9609 36.3173 22.6465 36.3173 25.5762C36.3173 31.5332 31.3369 36.416 25.331 36.416C23.5244 36.416 21.7666 35.9277 20.1552 35.0977L14.4423 36.5625L15.956 30.9473C15.0283 29.3359 14.4912 27.4805 14.4912 25.5273C14.4912 19.5703 19.374 14.6875 25.331 14.6875C28.2607 14.6875 30.9951 15.8594 32.997 17.9102ZM25.331 34.5605C30.3115 34.5605 34.4619 30.5078 34.4619 25.5762C34.4619 23.1348 33.4365 20.8887 31.7275 19.1797C30.0185 17.4707 27.7724 16.543 25.3798 16.543C20.3994 16.543 16.3466 20.5957 16.3466 25.5273C16.3466 27.2363 16.8349 28.8965 17.7138 30.3613L17.958 30.7031L17.0302 34.0234L20.4482 33.0957L20.7412 33.291C22.1572 34.1211 23.7197 34.5605 25.331 34.5605ZM30.3115 27.8223C30.5556 27.9688 30.7509 28.0176 30.7998 28.1641C30.8974 28.2617 30.8974 28.7988 30.6533 29.4336C30.4091 30.0684 29.3349 30.6543 28.8466 30.7031C27.9677 30.8496 27.2841 30.8008 25.5752 30.0195C22.8408 28.8477 21.083 26.1133 20.9365 25.9668C20.79 25.7715 19.8623 24.502 19.8623 23.1348C19.8623 21.8164 20.5459 21.1816 20.79 20.8887C21.0341 20.5957 21.3271 20.5469 21.5224 20.5469C21.6689 20.5469 21.8642 20.5469 22.0107 20.5469C22.206 20.5469 22.4013 20.498 22.6455 21.0352C22.8408 21.5723 23.4267 22.8906 23.4755 23.0371C23.5244 23.1836 23.5732 23.3301 23.4755 23.5254C22.9873 24.5508 22.4013 24.502 22.6943 24.9902C23.7685 26.7969 24.7939 27.4316 26.4052 28.2129C26.6494 28.3594 26.7959 28.3105 26.9912 28.1641C27.1377 27.9688 27.6748 27.334 27.8212 27.0898C28.0166 26.7969 28.2119 26.8457 28.456 26.9434C28.7002 27.041 30.0185 27.6758 30.3115 27.8223Z" fill="white"/>
</svg>
