<svg width="51" height="51" viewBox="0 0 51 51" fill="none" xmlns="http://www.w3.org/2000/svg">
<rect x="0.279785" y="0.5" width="50" height="50" rx="25" fill="black"/>
<path d="M25.3799 13.5156C32.0694 13.5156 37.4893 18.9355 37.4893 25.625C37.4893 32.3145 32.0694 37.7344 25.3799 37.7344C18.6905 37.7344 13.2705 32.3145 13.2705 25.625C13.2705 18.9355 18.6905 13.5156 25.3799 13.5156ZM31.2881 21.8164C31.4834 21.0352 30.9952 20.6934 30.458 20.8887L18.7881 25.3809C18.0069 25.6738 18.0069 26.1621 18.6416 26.3574L21.6202 27.2852L28.5538 22.8906C28.8955 22.6953 29.1885 22.8418 28.9444 23.0371L23.3291 28.1152L23.1338 31.1914C23.4268 31.1914 23.5733 31.0449 23.7198 30.8984L25.1846 29.4824L28.212 31.7285C28.7979 32.0215 29.1885 31.875 29.335 31.1914L31.2881 21.8164Z" fill="white"/>
</svg>
