<svg width="71" height="107" viewBox="0 0 71 107" fill="none" xmlns="http://www.w3.org/2000/svg">
<g filter="url(#filter0_d_15_2874)">
<path d="M8 9.83863C9.78956 8.04907 12.2618 6.9422 14.9926 6.9422C20.4542 6.9422 24.8816 11.3697 24.8816 16.8312C24.8816 22.2928 20.4542 26.7203 14.9926 26.7203V35.394V43.8743" stroke="#FFA500" stroke-opacity="0.86" stroke-width="8" stroke-linecap="round"/>
<path fill-rule="evenodd" clip-rule="evenodd" d="M8.4209 39.6658H21.5651V99H8.4209V39.6658Z" fill="#FFA500" fill-opacity="0.86"/>
<path d="M21.5156 36.259H8.3302V44.4999H21.5156V36.259Z" fill="#FFA500" fill-opacity="0.86"/>
<path d="M54.4791 24.7218V33.3961V41.876" stroke="#FFA500" stroke-opacity="0.86" stroke-width="8" stroke-linecap="round"/>
<path d="M62.47 24.4742C66.9755 19.9686 66.9755 12.6637 62.47 8.15812C57.9644 3.65256 50.6595 3.65256 46.1539 8.15812C41.6483 12.6637 41.6483 19.9686 46.1539 24.4742C50.6595 28.9798 57.9644 28.9798 62.47 24.4742Z" fill="#FFA500" fill-opacity="0.86"/>
<path d="M61.0717 36.259H47.8864V44.4999H61.0717V36.259Z" fill="#FFA500" fill-opacity="0.86"/>
<path fill-rule="evenodd" clip-rule="evenodd" d="M47.8864 44.4998H61.0305V98.8895H47.8864V44.4998Z" fill="#FFA500" fill-opacity="0.86"/>
</g>
<defs>
<filter id="filter0_d_15_2874" x="0" y="2.94214" width="69.8491" height="104.058" filterUnits="userSpaceOnUse" color-interpolation-filters="sRGB">
<feFlood flood-opacity="0" result="BackgroundImageFix"/>
<feColorMatrix in="SourceAlpha" type="matrix" values="0 0 0 0 0 0 0 0 0 0 0 0 0 0 0 0 0 0 127 0" result="hardAlpha"/>
<feOffset dy="4"/>
<feGaussianBlur stdDeviation="2"/>
<feComposite in2="hardAlpha" operator="out"/>
<feColorMatrix type="matrix" values="0 0 0 0 1 0 0 0 0 0.647059 0 0 0 0 0 0 0 0 0.86 0"/>
<feBlend mode="normal" in2="BackgroundImageFix" result="effect1_dropShadow_15_2874"/>
<feBlend mode="normal" in="SourceGraphic" in2="effect1_dropShadow_15_2874" result="shape"/>
</filter>
</defs>
</svg>
