<svg width="65" height="84" viewBox="0 0 65 84" fill="none" xmlns="http://www.w3.org/2000/svg">
<g filter="url(#filter0_d_17_2912)">
<path d="M61 14.25C61 7.51005 55.7985 0 48.3334 0C44.8853 0 42.4361 0.417555 40.0672 0.819523C37.7602 1.21229 35.5832 1.58338 32.5 1.58338C29.4168 1.58338 27.2397 1.21229 24.9328 0.819523C22.564 0.417555 20.1148 0 16.6666 0C9.20155 0 4 7.51005 4 14.25C4 18.8024 7.54395 28.9305 10.7943 35.4895C9.50703 43.1943 11.4373 69.2831 15.7945 74.6641C16.6883 75.7681 17.6223 76 18.25 76C23.6649 76 24.1318 69.308 24.6266 62.2216C25.2914 52.6751 26.244 45.9166 32.5 45.9166C38.756 45.9166 39.7086 52.6751 40.3734 62.2216C40.8682 69.308 41.3351 76 46.75 76C47.3777 76 48.3117 75.768 49.2055 74.6641C53.5627 69.2832 55.493 43.1952 54.2057 35.4899C57.4561 28.9306 61 18.8024 61 14.25ZM46.75 72.8334C44.2885 72.8334 43.9049 67.3272 43.5338 62.002C42.9371 53.4252 42.1918 42.75 32.5 42.75C22.8082 42.75 22.0629 53.4252 21.4662 62.002C21.0951 67.3272 20.7117 72.8334 18.4572 72.8782C15.899 71.3364 13.1433 51.1189 13.5281 40.151C13.6458 40.306 13.7684 40.4825 13.8804 40.6131C14.4556 41.2811 15.4545 41.3553 16.1132 40.7847C16.7781 40.2157 16.8554 39.2167 16.2865 38.5535C13.2248 34.9833 7.16662 19.6108 7.16662 14.25C7.16662 9.00823 11.0693 3.16662 16.6666 3.16662C19.8488 3.16662 22.0598 3.54395 24.4008 3.94131C26.3425 4.27188 28.3715 4.59726 30.9166 4.7025V8.70838C30.9166 10.8916 32.6916 12.6668 34.875 12.6668C35.3111 12.6668 35.6666 13.0224 35.6666 13.4584V17.4168C35.6666 18.292 36.3748 19.0001 37.25 19.0001C38.1252 19.0001 38.8334 18.292 38.8334 17.4168V13.4584C38.8334 11.275 37.0582 9.5 34.875 9.5C34.4389 9.5 34.0834 9.14434 34.0834 8.70838V4.7025C36.6285 4.59741 38.6575 4.27188 40.5992 3.94131C42.9402 3.54395 45.1513 3.16662 48.3334 3.16662C53.9307 3.16662 57.8334 9.00823 57.8334 14.25C57.8334 19.6108 51.7752 34.9833 48.7137 38.5535C48.1447 39.2169 48.2219 40.2157 48.8869 40.7847C49.1838 41.0413 49.5518 41.1666 49.9168 41.1666C50.3621 41.1666 50.8043 40.9796 51.1197 40.6131C51.2321 40.482 51.355 40.3054 51.4728 40.15C51.8614 51.117 49.1303 71.33 46.75 72.8334Z" fill="#FFA500" fill-opacity="0.86"/>
</g>
<defs>
<filter id="filter0_d_17_2912" x="0" y="0" width="65" height="84" filterUnits="userSpaceOnUse" color-interpolation-filters="sRGB">
<feFlood flood-opacity="0" result="BackgroundImageFix"/>
<feColorMatrix in="SourceAlpha" type="matrix" values="0 0 0 0 0 0 0 0 0 0 0 0 0 0 0 0 0 0 127 0" result="hardAlpha"/>
<feOffset dy="4"/>
<feGaussianBlur stdDeviation="2"/>
<feComposite in2="hardAlpha" operator="out"/>
<feColorMatrix type="matrix" values="0 0 0 0 1 0 0 0 0 0.647059 0 0 0 0 0 0 0 0 0.86 0"/>
<feBlend mode="normal" in2="BackgroundImageFix" result="effect1_dropShadow_17_2912"/>
<feBlend mode="normal" in="SourceGraphic" in2="effect1_dropShadow_17_2912" result="shape"/>
</filter>
</defs>
</svg>
