<svg width="131" height="91" viewBox="0 0 131 91" fill="none" xmlns="http://www.w3.org/2000/svg">
<path d="M98.938 57.7941C89.8327 57.7941 82.4254 65.2015 82.4254 74.3067C82.4254 83.412 89.8327 90.8194 98.938 90.8194C108.045 90.8194 115.451 83.412 115.451 74.3067C115.451 65.2015 108.043 57.7941 98.938 57.7941ZM98.938 82.563C94.3847 82.563 90.6817 78.86 90.6817 74.3067C90.6817 69.7534 94.3847 66.0504 98.938 66.0504C103.491 66.0504 107.194 69.7534 107.194 74.3067C107.194 78.8602 103.491 82.563 98.938 82.563Z" fill="#FFA500" fill-opacity="0.86"/>
<path d="M42.52 57.7941C33.4147 57.7941 26.0073 65.2015 26.0073 74.3067C26.0073 83.412 33.4147 90.8194 42.52 90.8194C51.6252 90.8194 59.0326 83.412 59.0326 74.3067C59.0326 65.2015 51.6252 57.7941 42.52 57.7941ZM42.52 82.563C37.9667 82.563 34.2636 78.86 34.2636 74.3067C34.2636 69.7534 37.9667 66.0504 42.52 66.0504C47.072 66.0504 50.7763 69.7534 50.7763 74.3067C50.7763 78.8602 47.0732 82.563 42.52 82.563Z" fill="#FFA500" fill-opacity="0.86"/>
<path d="M110.058 10.5297C109.356 9.13574 107.929 8.25635 106.369 8.25635H84.627V16.5127H103.823L115.064 38.8707L122.442 35.1607L110.058 10.5297Z" fill="#FFA500" fill-opacity="0.86"/>
<path d="M86.5537 70.3163H55.3173V78.5726H86.5537V70.3163Z" fill="#FFA500" fill-opacity="0.86"/>
<path d="M30.1354 70.3163H15.8246C13.5444 70.3163 11.6966 72.1644 11.6966 74.4443C11.6966 76.7245 13.5447 78.5724 15.8246 78.5724H30.1356C32.4158 78.5724 34.2636 76.7243 34.2636 74.4443C34.2636 72.1641 32.4156 70.3163 30.1354 70.3163Z" fill="#FFA500" fill-opacity="0.86"/>
<path d="M130.133 45.0793L122.013 34.6214C121.233 33.614 120.029 33.025 118.753 33.025H88.7553V4.12803C88.7553 1.84782 86.9072 0 84.6273 0H15.8246C13.5444 0 11.6966 1.84807 11.6966 4.12803C11.6966 6.408 13.5447 8.25607 15.8246 8.25607H80.499V37.1531C80.499 39.4333 82.347 41.2811 84.627 41.2811H116.732L122.744 49.0255V70.3158H111.322C109.042 70.3158 107.194 72.1639 107.194 74.4438C107.194 76.724 109.042 78.5719 111.322 78.5719H126.872C129.152 78.5719 131 76.7238 131 74.4438V47.6113C131 46.6949 130.694 45.8032 130.133 45.0793Z" fill="#FFA500" fill-opacity="0.86"/>
<path d="M29.8603 49.4003H10.8707C8.59049 49.4003 6.74268 51.2483 6.74268 53.5283C6.74268 55.8085 8.59075 57.6563 10.8707 57.6563H29.8601C32.1403 57.6563 33.9881 55.8083 33.9881 53.5283C33.9884 51.2483 32.1403 49.4003 29.8603 49.4003Z" fill="#FFA500" fill-opacity="0.86"/>
<path d="M39.355 33.1627H4.12804C1.84807 33.1627 0 35.0108 0 37.291C0 39.5712 1.84807 41.419 4.12804 41.419H39.355C41.6352 41.419 43.483 39.571 43.483 37.291C43.483 35.011 41.6352 33.1627 39.355 33.1627Z" fill="#FFA500" fill-opacity="0.86"/>
<path d="M46.0977 16.9253H10.8707C8.59049 16.9253 6.74268 18.7734 6.74268 21.0533C6.74268 23.3335 8.59075 25.1814 10.8707 25.1814H46.0977C48.3779 25.1814 50.2257 23.3333 50.2257 21.0533C50.226 18.7734 48.3779 16.9253 46.0977 16.9253Z" fill="#FFA500" fill-opacity="0.86"/>
</svg>
