<svg width="62" height="86" viewBox="0 0 62 86" fill="none" xmlns="http://www.w3.org/2000/svg">
<g filter="url(#filter0_d_13_2673)">
<path d="M51.8157 11.7307C51.8157 11.7307 46.2948 17.6842 46.2948 20.7333C46.2948 23.7825 48.7666 26.2543 51.8157 26.2543C54.8649 26.2543 57.3367 23.7825 57.3367 20.7333C57.3367 17.6842 51.8157 11.7307 51.8157 11.7307Z" fill="#FFA500" fill-opacity="0.86"/>
<path d="M45.1443 29.9863H6.73061C5.07418 31.2238 4 33.1994 4 35.4214V78.0001H47.8751V35.4215C47.8751 33.1996 46.8007 31.2238 45.1443 29.9863ZM25.9375 70.3829C20.5671 70.3829 15.5734 67.7158 12.5793 63.2485L16.3758 60.7041C18.5196 63.9028 22.0942 65.8126 25.9375 65.8126C29.7809 65.8126 33.3553 63.9028 35.4993 60.7041L39.2958 63.2485C36.3015 67.7158 31.3078 70.3829 25.9375 70.3829ZM32.7659 51.9994V56.5697H28.2227V61.1129H23.6524V56.5697H19.1092V51.9994H23.6524V47.4562H28.2227V51.9994H32.7659ZM35.4991 47.9172C33.3553 44.7184 29.7809 42.8087 25.9375 42.8087C22.0942 42.8087 18.5198 44.7184 16.3758 47.9172L12.5793 45.3728C15.5733 40.9054 20.5671 38.2383 25.9375 38.2383C31.3078 38.2383 36.3016 40.9054 39.2958 45.3728L35.4991 47.9172Z" fill="#FFA500" fill-opacity="0.86"/>
<path d="M38.9377 17.9766H28.2229V13.4063H33.1995L36.3478 4.57032H46.6909C48.3733 4.57032 49.7419 5.93898 49.7419 7.62131H54.3122C54.3122 3.4189 50.8932 0 46.6908 0H19.2478V13.4063H23.6526V17.9766H12.9377V25.416H38.9377V17.9766Z" fill="#FFA500" fill-opacity="0.86"/>
</g>
<defs>
<filter id="filter0_d_13_2673" x="0" y="0" width="61.3367" height="86.0002" filterUnits="userSpaceOnUse" color-interpolation-filters="sRGB">
<feFlood flood-opacity="0" result="BackgroundImageFix"/>
<feColorMatrix in="SourceAlpha" type="matrix" values="0 0 0 0 0 0 0 0 0 0 0 0 0 0 0 0 0 0 127 0" result="hardAlpha"/>
<feOffset dy="4"/>
<feGaussianBlur stdDeviation="2"/>
<feComposite in2="hardAlpha" operator="out"/>
<feColorMatrix type="matrix" values="0 0 0 0 1 0 0 0 0 0.647059 0 0 0 0 0 0 0 0 0.86 0"/>
<feBlend mode="normal" in2="BackgroundImageFix" result="effect1_dropShadow_13_2673"/>
<feBlend mode="normal" in="SourceGraphic" in2="effect1_dropShadow_13_2673" result="shape"/>
</filter>
</defs>
</svg>
