<svg width="92" height="92" viewBox="0 0 92 92" fill="none" xmlns="http://www.w3.org/2000/svg">
<g filter="url(#filter0_d_17_2916)">
<path d="M86.7837 23.3469C82.559 22.2149 79.2313 18.8872 78.0991 14.6624C77.6592 13.0518 75.3685 13.0526 74.9295 14.6624C74.7172 15.4545 74.4277 16.215 74.0697 16.9357C70.1943 13.5724 65.3479 11.8054 59.9423 11.8054C56.6857 11.8054 53.1733 13.0503 50.0742 14.1486C48.6765 14.644 47.3475 15.1151 46.1354 15.4462C40.6805 13.0257 33.3424 10.7535 27.1358 12.3315C26.2507 12.5262 25.6912 13.4016 25.886 14.2866C26.0809 15.1717 26.9563 15.7317 27.8411 15.5364C33.8374 14.3485 38.1115 15.6618 45.3278 18.6762C48.9922 20.3083 52.7204 20.9884 56.5361 21.5953C57.4111 21.7409 58.2761 21.1323 58.4143 20.2327C58.5565 19.3376 57.9465 18.4967 57.0516 18.3545C55.0111 18.0299 53.0829 17.7001 51.213 17.2266C54.1888 16.1719 57.2626 15.087 59.942 15.087C64.6719 15.087 68.8884 16.6686 72.2107 19.6743C70.6427 21.4236 68.5809 22.7211 66.2448 23.3471C64.6342 23.7868 64.635 26.0775 66.2448 26.5167C70.4695 27.6487 73.797 30.9764 74.9291 35.2011C75.3689 36.8117 77.6594 36.8109 78.0988 35.2011C78.2613 34.595 78.469 34.0074 78.7179 33.4422C79.3345 39.7231 77.1286 45.9668 72.5543 50.3428C67.2516 55.4684 66.83 57.6805 66.3124 62.6282C66.2742 62.9949 66.2338 63.3797 66.1888 63.7851L64.8833 72.2652C63.9711 78.1904 62.0027 80.7185 58.3012 80.7185C56.2849 80.7185 55.1545 79.6691 54.7442 77.4158L52.5957 65.6213C51.5366 59.8055 48.0056 58.9371 45.995 58.9371C43.9845 58.9371 40.4537 59.8054 39.3943 65.6211L37.246 77.4156C36.8355 79.6689 35.7051 80.7184 33.6889 80.7184C29.9873 80.7184 28.0188 78.1902 27.1067 72.265L25.8013 63.7848C25.7564 63.3792 25.716 62.9944 25.6776 62.6275C25.1599 57.6802 24.7384 55.4683 19.4359 50.3428C11.9838 43.5371 11.3215 30.9961 16.8672 23.026C17.3772 22.2769 17.1836 21.2562 16.4346 20.7461C15.6859 20.2361 14.665 20.4297 14.1547 21.1787C7.71245 30.4293 8.56058 44.8286 17.1558 52.7022C21.8109 57.2019 21.9629 58.6552 22.4144 62.969C22.4544 63.3527 22.4966 63.7559 22.544 64.1815C22.5465 64.2043 22.5494 64.2271 22.5531 64.2499L23.8637 72.7643C24.2915 75.5433 25.5936 83.9999 33.6894 83.9999C37.3075 83.9999 39.7807 81.8144 40.4747 78.0037L42.623 66.2092C43.35 62.2186 45.341 62.2186 45.9953 62.2186C46.6495 62.2186 48.6408 62.2186 49.3676 66.2092L51.5161 78.0037C52.21 81.8144 54.6833 83.9999 58.3014 83.9999C66.3975 83.9999 67.699 75.5431 68.1269 72.7643L69.4378 64.2501C69.4412 64.2273 69.4443 64.2045 69.4468 64.1815C69.494 63.7561 69.5362 63.3534 69.5764 62.9696C70.0278 58.6557 70.1799 57.2023 74.8353 52.7024C81.0634 46.8297 83.3802 37.7965 81.4291 29.554C82.906 28.1257 84.7397 27.0641 86.7835 26.5166C88.3944 26.077 88.3934 23.7863 86.7837 23.3469ZM76.5143 30.5531C75.1579 28.2291 73.217 26.2882 70.8931 24.9317C73.217 23.5751 75.1579 21.6342 76.5143 19.3104C77.8709 21.6342 79.8118 23.5751 82.1356 24.9317C79.8118 26.2883 77.8709 28.2292 76.5143 30.5531Z" fill="#FFA500" fill-opacity="0.86"/>
<path d="M26.6489 48.9907C30.0755 49.9089 32.7744 52.6078 33.6926 56.0343C34.1322 57.6449 36.4232 57.6441 36.8623 56.0343C37.7805 52.6078 40.4794 49.9089 43.906 48.9907C45.5166 48.551 45.5158 46.2603 43.906 45.821C40.4794 44.9029 37.7805 42.2039 36.8623 38.7775C36.4227 37.1669 34.1317 37.1677 33.6926 38.7775C32.7744 42.2039 30.0755 44.9029 26.6489 45.821C25.0383 46.2608 25.0391 48.5513 26.6489 48.9907ZM35.2774 43.2483C36.3351 44.9252 37.7581 46.3482 39.435 47.4059C37.7581 48.4635 36.3351 49.8866 35.2774 51.5635C34.2198 49.8866 32.7967 48.4635 31.1198 47.4059C32.7967 46.3481 34.2198 44.9252 35.2774 43.2483Z" fill="#FFA500" fill-opacity="0.86"/>
<path d="M12.5935 17.1956C13.3361 17.1956 13.9862 16.6968 14.1783 15.9795C14.9344 13.1575 17.1572 10.9346 19.9793 10.1785C21.5898 9.73859 21.5889 7.44805 19.9792 7.00881C17.1573 6.25257 14.9346 4.0298 14.1783 1.20764C13.7386 -0.402957 11.448 -0.402137 11.0086 1.20764C10.2524 4.0298 8.02947 6.25257 5.20764 7.00865C3.59704 7.44838 3.59786 9.73908 5.20764 10.1783C8.02947 10.9346 10.2524 13.1573 11.0086 15.9793C11.2009 16.6968 11.851 17.1956 12.5935 17.1956ZM12.5935 5.51947C13.4139 6.72873 14.4582 7.77325 15.6675 8.59365C14.4582 9.41404 13.4139 10.4586 12.5935 11.6678C11.7729 10.4586 10.7286 9.41404 9.5193 8.59365C10.7286 7.77309 11.7729 6.72873 12.5935 5.51947Z" fill="#FFA500" fill-opacity="0.86"/>
<path d="M20.7062 15.2163C19.8002 15.2163 19.0661 15.9509 19.0661 16.8571C19.1527 19.0333 22.2622 19.0333 22.3483 16.8571C22.3483 15.9509 21.6136 15.2163 20.7075 15.2163H20.7062Z" fill="#FFA500" fill-opacity="0.86"/>
</g>
<defs>
<filter id="filter0_d_17_2916" x="0" y="0" width="91.9913" height="92" filterUnits="userSpaceOnUse" color-interpolation-filters="sRGB">
<feFlood flood-opacity="0" result="BackgroundImageFix"/>
<feColorMatrix in="SourceAlpha" type="matrix" values="0 0 0 0 0 0 0 0 0 0 0 0 0 0 0 0 0 0 127 0" result="hardAlpha"/>
<feOffset dy="4"/>
<feGaussianBlur stdDeviation="2"/>
<feComposite in2="hardAlpha" operator="out"/>
<feColorMatrix type="matrix" values="0 0 0 0 1 0 0 0 0 0.647059 0 0 0 0 0 0 0 0 0.86 0"/>
<feBlend mode="normal" in2="BackgroundImageFix" result="effect1_dropShadow_17_2916"/>
<feBlend mode="normal" in="SourceGraphic" in2="effect1_dropShadow_17_2916" result="shape"/>
</filter>
</defs>
</svg>
