<svg width="104" height="126" viewBox="0 0 104 126" fill="none" xmlns="http://www.w3.org/2000/svg">
<path d="M78.4073 94.2955C81.0247 92.7245 82.8147 90.0965 83.3172 87.0867C83.9361 83.3712 82.4942 79.606 79.5552 77.2542L77.4605 75.5816C75.0494 73.6477 73.6667 70.7679 73.6667 67.6819C73.6667 62.5932 77.4753 58.2789 82.5259 57.6484C87.3554 57.0443 91 52.9162 91 48.0454V39.2857C88.9265 36.9349 86.6275 34.7598 84.1255 32.7899C83.4379 37.301 81.8065 41.6259 79.2918 45.4916L57.1649 79.5298C56.0255 81.2871 54.0948 82.3334 52 82.3334C49.9053 82.3334 47.9767 81.2871 46.8352 79.5298L24.7083 45.4916C22.1957 41.6237 20.5612 37.301 19.8745 32.7899C9.07825 41.282 2.10852 53.6314 0.407349 67.1667H4.99882C7.65002 67.1667 10.0018 65.5766 10.9868 63.1105C12.6382 58.9941 16.5664 56.3334 20.9991 56.3334C24.8585 56.3334 28.446 58.4154 30.3598 61.767L33.5855 67.409C35.822 71.3244 35.6569 76.0852 33.157 79.8334C30.8666 83.2696 31.7976 87.9256 35.2348 90.2182L35.9013 90.6625C39.1968 92.8631 41.1667 96.5405 41.1667 100.498C41.1667 108.699 37.1476 116.305 30.4201 120.957C36.9984 123.97 44.3035 125.665 52 125.665C55.7155 125.665 59.3369 125.266 62.8334 124.521V122.534C62.8334 118.58 63.7696 114.619 65.5375 111.077L68.6743 104.802C70.8547 100.444 74.2211 96.8092 78.4073 94.2955Z" fill="#FFA500" fill-opacity="0.86"/>
<path d="M50.4703 77.1706C51.1442 78.2105 52.858 78.2105 53.5298 77.1706L75.6556 43.1323C78.6062 38.5927 80.1667 33.3294 80.1667 27.9149C80.1667 12.5229 67.6459 0 52.2518 0H51.7482C36.3541 0 23.8334 12.5229 23.8334 27.9149C23.8334 33.3294 25.3938 38.5927 28.3444 43.1291L50.4703 77.1706ZM52 8.66667C62.753 8.66667 71.5 17.4137 71.5 28.1667C71.5 38.9196 62.753 47.6667 52 47.6667C41.2471 47.6667 32.5 38.9196 32.5 28.1667C32.5 17.4137 41.2471 8.66667 52 8.66667Z" fill="#FFA500" fill-opacity="0.86"/>
<path d="M36.8333 100.5C36.8333 97.994 35.5871 95.6644 33.4987 94.269L32.8311 93.8257C30.2032 92.0727 28.4153 89.4035 27.7964 86.3069C27.1764 83.2103 27.8006 80.0587 29.5536 77.4297C31.1374 75.0536 31.241 72.0395 29.8266 69.5586L26.5998 63.9166C25.4562 61.9129 23.3086 60.6666 21.0012 60.6666C18.349 60.6666 15.9982 62.2567 15.0133 64.7228C13.3618 68.8392 9.43367 71.5 5.00089 71.5H0.0666504C0.0370278 72.2215 0 72.9409 0 73.6666C0 92.8894 10.4948 109.698 26.0476 118.699L27.6768 117.614C33.4098 113.791 36.8333 107.395 36.8333 100.5ZM15.1667 97.4999H10.8333V93.1666H15.1667V97.4999ZM23.8333 75.8333H19.5V71.5H23.8333V75.8333ZM30.3333 108.333H26V104H30.3333V108.333Z" fill="#FFA500" fill-opacity="0.86"/>
<path d="M67.1666 28.1667C67.1666 36.5435 60.3767 43.3333 51.9999 43.3333C43.6231 43.3333 36.8333 36.5435 36.8333 28.1667C36.8333 19.7899 43.6231 13 51.9999 13C60.3767 13 67.1666 19.7899 67.1666 28.1667Z" fill="#FFA500" fill-opacity="0.86"/>
<path d="M95.3333 44.9583V48.0453C95.3333 55.0965 90.0573 61.0739 83.0633 61.9467C80.1772 62.3085 78 64.7746 78 67.6818C78 69.4454 78.7902 71.0926 80.1687 72.1971L82.2613 73.8676C86.4265 77.198 88.4694 82.5374 87.5913 87.7975C86.8814 92.0642 84.3466 95.7882 80.6385 98.0109C77.1589 100.1 74.3638 103.118 72.5526 106.745L69.4158 113.02C67.9421 115.96 67.1666 119.251 67.1666 122.538V123.405C88.463 116.898 104 97.064 104 73.6666C104 63.2924 100.897 53.3541 95.3333 44.9583ZM82.3333 110.5H78V106.167H82.3333V110.5ZM95.3333 71.4999H91V67.1666H95.3333V71.4999Z" fill="#FFA500" fill-opacity="0.86"/>
</svg>
