<svg width="88" height="94" viewBox="0 0 88 94" fill="none" xmlns="http://www.w3.org/2000/svg">
<g filter="url(#filter0_d_17_2910)">
<path d="M78.5303 44.6071L65.9131 51.6276L50.9445 42.9859L65.9018 34.3498L78.5529 41.3647C79.0407 41.6438 79.6243 41.8074 80.2474 41.8074C80.2502 41.8074 80.253 41.8074 80.2559 41.8074C80.2587 41.8074 80.2615 41.8074 80.2643 41.8074C82.2098 41.8074 83.7859 40.2313 83.7859 38.2858C83.7859 36.9663 83.0584 35.8159 81.9842 35.2126L81.9673 35.2041L73.0182 30.2446L79.8414 26.3058C80.9043 25.6855 81.6036 24.5493 81.6036 23.2523C81.6036 21.304 80.0247 19.728 78.0792 19.728C77.4307 19.728 76.8217 19.9028 76.3001 20.2101L76.317 20.2016L69.4995 24.1376L69.663 13.917C69.663 13.9001 69.663 13.8803 69.663 13.8606C69.663 11.9321 68.1151 10.3673 66.1951 10.3362C64.2665 10.356 62.6961 11.8841 62.6143 13.7957V13.8042L62.3831 28.2513L47.4173 36.893V19.618L59.823 12.1858C60.855 11.5599 61.5345 10.4406 61.5345 9.16333C61.5345 7.21789 59.9555 5.63897 58.0101 5.63897C57.3419 5.63897 56.716 5.82506 56.1831 6.1493L56.2 6.14084L47.4173 11.402V3.52436C47.4173 1.57891 45.8384 0 43.8929 0C41.9475 0 40.3686 1.57891 40.3686 3.52436V11.3964L31.6112 6.1352C31.0953 5.82224 30.4722 5.63897 29.8068 5.63897C27.8613 5.63897 26.2824 7.21789 26.2824 9.16333C26.2824 10.4349 26.9563 11.5486 27.9656 12.1689L27.9797 12.1774L40.3686 19.618V36.8958L25.4084 28.2569L25.1744 13.8042C25.0954 11.8813 23.525 10.3532 21.5936 10.3391C19.6707 10.3729 18.1228 11.9377 18.1228 13.8634C18.1228 13.8832 18.1228 13.9029 18.1228 13.9226L18.2892 24.1489L11.4716 20.2129C10.967 19.9169 10.3579 19.742 9.70946 19.742C7.7612 19.742 6.1851 21.321 6.1851 23.2664C6.1851 24.5634 6.88715 25.6996 7.93037 26.3115L7.94728 26.3199L14.7648 30.2559L5.82139 35.2126C4.72743 35.8244 4 36.9776 4 38.2999C4 40.2454 5.57891 41.8243 7.52436 41.8243C8.15592 41.8243 8.74802 41.6579 9.26116 41.3675L9.24425 41.376L21.8868 34.3667L36.847 43.0028L21.8868 51.6389L9.24707 44.6099C8.75366 44.3308 8.16438 44.1673 7.53564 44.1673C5.58737 44.1673 4.01128 45.7462 4.01128 47.6916C4.01128 49.0083 4.73589 50.1587 5.80729 50.7649L5.82421 50.7733L14.7761 55.7469L7.9501 59.6885C6.87588 60.306 6.16537 61.4451 6.16537 62.7533C6.16537 64.6988 7.74146 66.2777 9.68973 66.2777C10.3495 66.2777 10.9641 66.0972 11.4914 65.7814L11.4745 65.7899L18.292 61.8539L18.1144 72.0717C18.1144 72.0886 18.1144 72.1112 18.1144 72.1309C18.1144 74.0566 19.6594 75.6215 21.5767 75.6581H21.5795H21.6387C23.5644 75.6581 25.1292 74.1159 25.1631 72.1986L25.414 57.7459L40.3714 49.1098V66.3764L27.9741 73.8254C26.9422 74.4542 26.2627 75.5707 26.2627 76.8479C26.2627 78.7962 27.8416 80.3751 29.7899 80.3751C30.4609 80.3751 31.0868 80.189 31.6197 79.8648L31.6028 79.8733L40.3714 74.6036V82.4756C40.3714 84.4211 41.9503 86 43.8957 86C45.8412 86 47.4201 84.4211 47.4201 82.4756V74.6036L56.1915 79.8592C56.7047 80.1749 57.3278 80.361 57.9932 80.361C57.996 80.361 57.996 80.361 57.9988 80.361C58.0016 80.361 58.0016 80.361 58.0045 80.361C59.9499 80.361 61.5288 78.7821 61.5288 76.8367C61.5288 75.5594 60.8493 74.4401 59.8315 73.8226L59.8146 73.8142L47.4201 66.3876V49.107L62.3718 57.7403L62.6228 72.2071C62.6566 74.1271 64.2186 75.6722 66.1443 75.6722H66.2063C68.1264 75.6384 69.6715 74.0736 69.6715 72.1479C69.6715 72.1253 69.6715 72.1056 69.6715 72.083L69.4939 61.8511L76.3198 65.7899C76.8189 66.0775 77.4194 66.2495 78.0567 66.2495C80.0021 66.2495 81.581 64.6734 81.581 62.7251C81.581 61.4394 80.8902 60.3116 79.8611 59.697L79.8442 59.6885L73.0267 55.7525L81.9588 50.7846C83.0415 50.17 83.7605 49.0224 83.7605 47.7114C83.7605 45.7659 82.1816 44.187 80.2361 44.187C79.6102 44.187 79.0237 44.3505 78.5162 44.6353L78.5331 44.6268L78.5303 44.6071Z" fill="#FFA500" fill-opacity="0.86" shape-rendering="crispEdges"/>
</g>
<defs>
<filter id="filter0_d_17_2910" x="0" y="0" width="87.7859" height="94" filterUnits="userSpaceOnUse" color-interpolation-filters="sRGB">
<feFlood flood-opacity="0" result="BackgroundImageFix"/>
<feColorMatrix in="SourceAlpha" type="matrix" values="0 0 0 0 0 0 0 0 0 0 0 0 0 0 0 0 0 0 127 0" result="hardAlpha"/>
<feOffset dy="4"/>
<feGaussianBlur stdDeviation="2"/>
<feComposite in2="hardAlpha" operator="out"/>
<feColorMatrix type="matrix" values="0 0 0 0 1 0 0 0 0 0.647059 0 0 0 0 0 0 0 0 0.86 0"/>
<feBlend mode="normal" in2="BackgroundImageFix" result="effect1_dropShadow_17_2910"/>
<feBlend mode="normal" in="SourceGraphic" in2="effect1_dropShadow_17_2910" result="shape"/>
</filter>
</defs>
</svg>
