<svg width="38" height="52" viewBox="0 0 38 52" fill="none" xmlns="http://www.w3.org/2000/svg">
<path d="M17.1469 49.7434C2.88906 29.2356 0.35 27.0872 0.35 19.47C0.35 9.11841 8.65078 0.719971 19.1 0.719971C29.4516 0.719971 37.85 9.11841 37.85 19.47C37.85 27.0872 35.2133 29.2356 20.9555 49.7434C20.0766 51.1106 18.0258 51.1106 17.1469 49.7434ZM19.1 27.2825C23.3969 27.2825 26.9125 23.8645 26.9125 19.47C26.9125 15.1731 23.3969 11.6575 19.1 11.6575C14.7055 11.6575 11.2875 15.1731 11.2875 19.47C11.2875 23.8645 14.7055 27.2825 19.1 27.2825Z" fill="#E4A718"/>
</svg>
