<svg width="103" height="105" viewBox="0 0 103 105" fill="none" xmlns="http://www.w3.org/2000/svg">
<g filter="url(#filter0_d_15_2870)">
<path d="M98.0052 33.1631L95.1517 18.8891C95.1487 18.886 95.1486 18.8832 95.1458 18.8773V18.8743C95.0717 18.4954 94.8853 18.1343 94.5952 17.8411C93.8048 17.0539 92.5229 17.0539 91.7355 17.8411C91.2381 18.3385 91.0547 19.0283 91.1851 19.6678L93.559 31.5381H84.5896C84.0745 31.5381 83.5567 31.7364 83.163 32.1301L57.4419 57.851L60.2984 60.7108L85.4303 35.5816H96.0219C96.5399 35.5816 97.0581 35.3832 97.4516 34.9895C97.9461 34.492 98.1297 33.8025 98.0052 33.1631Z" fill="#FFA500" fill-opacity="0.86"/>
<path d="M40.2919 34.9893L5.77594 69.5051C3.40802 71.8703 3.40802 75.7096 5.77594 78.0779C8.14424 80.446 11.9835 80.446 14.3518 78.0779L48.8646 43.5621L40.2919 34.9893Z" fill="#FFA500" fill-opacity="0.86"/>
<path d="M72.3108 14.4045L69.4542 11.5449L43.1515 37.8463L46.008 40.7055L72.3108 14.4045Z" fill="#FFA500" fill-opacity="0.86"/>
<path d="M57.4419 52.1375L22.9246 86.6504C20.5595 89.0185 20.5595 92.858 22.9246 95.2261C25.2927 97.5912 29.132 97.5912 31.5003 95.2261L66.0147 60.7103L57.4419 52.1375Z" fill="#FFA500" fill-opacity="0.86"/>
<path d="M71.7309 22.2307C69.031 22.2307 66.4941 21.18 64.5849 19.2707C60.6478 15.3306 60.6478 8.92182 64.5849 4.98191C66.4941 3.0725 69.031 2.02173 71.7309 2.02173C74.4304 2.02173 76.9675 3.0725 78.8767 4.98191C80.7831 6.89114 81.8369 9.42807 81.8369 12.1247C81.8369 14.8244 80.7831 17.3615 78.8767 19.2707C76.9673 21.18 74.4304 22.2307 71.7309 22.2307Z" fill="white"/>
<path d="M80.3034 3.55226C77.9352 1.18415 74.833 0 71.7309 0C68.6284 0 65.5263 1.18415 63.158 3.55226C58.4218 8.28867 58.4218 15.9644 63.158 20.7007C65.5263 23.0688 68.6284 24.2499 71.7309 24.2499C74.833 24.2499 77.9352 23.0657 80.3034 20.7007C85.0398 15.9642 85.0398 8.28867 80.3034 3.55226ZM77.447 17.8411C75.9195 19.3685 73.8915 20.2094 71.7309 20.2094C69.5698 20.2094 67.5422 19.3685 66.0147 17.8411C62.8619 14.6916 62.8619 9.56149 66.0147 6.41184C67.5422 4.88438 69.5698 4.04373 71.7309 4.04373C73.8915 4.04373 75.9194 4.88457 77.447 6.41184C78.9714 7.93646 79.8149 9.96713 79.8149 12.1249C79.8149 14.286 78.9714 16.3166 77.447 17.8411Z" fill="#FFA500" fill-opacity="0.86"/>
<path d="M31.7192 43.5625L34.5788 40.7056L43.1515 49.2784L40.2919 52.1378L31.7192 43.5625Z" fill="#FFA500" fill-opacity="0.86"/>
<path d="M48.8646 60.7107L51.7242 57.8511L60.2984 66.4268L57.4418 69.2833L48.8646 60.7107Z" fill="#FFA500" fill-opacity="0.86"/>
</g>
<defs>
<filter id="filter0_d_15_2870" x="0" y="0" width="102.043" height="105" filterUnits="userSpaceOnUse" color-interpolation-filters="sRGB">
<feFlood flood-opacity="0" result="BackgroundImageFix"/>
<feColorMatrix in="SourceAlpha" type="matrix" values="0 0 0 0 0 0 0 0 0 0 0 0 0 0 0 0 0 0 127 0" result="hardAlpha"/>
<feOffset dy="4"/>
<feGaussianBlur stdDeviation="2"/>
<feComposite in2="hardAlpha" operator="out"/>
<feColorMatrix type="matrix" values="0 0 0 0 1 0 0 0 0 0.647059 0 0 0 0 0 0 0 0 0.25 0"/>
<feBlend mode="normal" in2="BackgroundImageFix" result="effect1_dropShadow_15_2870"/>
<feBlend mode="normal" in="SourceGraphic" in2="effect1_dropShadow_15_2870" result="shape"/>
</filter>
</defs>
</svg>
