<svg width="116" height="78" viewBox="0 0 116 78" fill="none" xmlns="http://www.w3.org/2000/svg">
<g filter="url(#filter0_d_10_1103)">
<path fill-rule="evenodd" clip-rule="evenodd" d="M13.147 0.0918426C10.1294 0.54834 7.46594 2.56953 6.13305 5.41411C5.6431 6.45994 5.47847 7.14926 5.39334 8.51418C5.13962 12.5753 6.48189 16.637 9.37246 20.5555L10.4381 22.0002L10.3755 24.713C10.3057 27.7382 10.6739 30.3853 11.3431 31.6675C11.6109 32.1808 11.6896 32.5568 11.5691 32.7468C11.4673 32.9073 11.2286 33.5064 11.0388 34.0781C10.779 34.8595 10.3896 35.3937 9.46903 36.2312C7.20369 38.2919 5.40146 41.3369 4.46797 44.6798C4.05274 46.1667 4.00321 46.8267 4.00008 50.9161C3.99738 54.7502 4.05795 55.691 4.37556 56.7366C5.33485 59.8945 7.43389 62.4518 10.1509 63.7726C13.7608 65.5275 26.6553 68.0439 37.3947 69.0891C51.2987 70.4426 69.2486 70.2752 82.3518 68.6704C92.5314 67.4238 102.698 65.3047 105.849 63.7726C108.566 62.4518 110.665 59.8945 111.624 56.7366C111.942 55.691 112.003 54.7502 112 50.9161C111.997 46.8267 111.947 46.1667 111.532 44.6798C110.599 41.3369 108.796 38.2919 106.531 36.2312C105.61 35.3937 105.221 34.8595 104.961 34.0781C104.771 33.5064 104.533 32.9073 104.431 32.7468C104.31 32.5568 104.389 32.1808 104.657 31.6675C105.325 30.3868 105.694 27.738 105.625 24.7209L105.562 22.0156L106.776 20.3555C108.222 18.379 109.43 15.9518 110.034 13.8101C110.604 11.7901 110.801 8.62768 110.45 7.13825C109.466 2.96969 105.839 0.0606615 101.604 0.0448628C100.185 0.0396659 99.5091 0.178114 97.0253 0.982805C89.9643 3.2707 85.2742 4.42047 78.2315 5.59019C71.3777 6.72852 65.6104 7.18232 58 7.18232C44.2873 7.18232 32.338 5.29646 19.0788 1.03955C16.0122 0.0550495 14.7369 -0.148671 13.147 0.0918426ZM18.2067 3.39896C32.1488 8.06413 48.6683 10.3818 62.9432 9.67518C75.9658 9.03076 86.835 7.06965 97.8578 3.37609C100.106 2.62275 100.511 2.54853 101.916 2.63148C105.321 2.8327 107.833 5.29063 108.107 8.68797C108.306 11.1733 107.408 14.5769 105.868 17.1644C104.546 19.3874 104.113 19.814 103.194 19.8013C101.836 19.7826 100.905 20.4708 99.4176 22.5912L98.7261 23.5769L98.3665 22.7747C98.1687 22.3334 97.7887 21.8196 97.5219 21.6331C96.9253 21.2157 95.6374 21.1934 94.875 21.5874C94.285 21.8921 92.6854 23.521 92.1218 24.3912L91.7984 24.8903L91.4133 23.8715C90.9835 22.7338 89.885 20.9217 89.3665 20.4952C88.9469 20.1499 87.3609 20.4424 86.0603 21.1051C84.9243 21.684 83.3623 23.3375 82.6307 24.7361C82.3056 25.3574 81.9879 25.8661 81.9249 25.8665C81.8618 25.8667 81.6073 25.4495 81.3589 24.9392C81.1109 24.429 80.5662 23.6339 80.1487 23.1722C79.5122 22.4687 79.2599 22.333 78.5889 22.333C77.072 22.333 75.5085 23.1109 74.0326 24.5997C73.2852 25.3539 72.5721 26.154 72.4483 26.3777C72.247 26.7412 72.1654 26.6587 71.6803 25.6C70.3257 22.6452 68.8161 21.1458 66.608 20.5619C62.9728 19.6007 59.6728 21.7979 58.4069 26.0228C58.2614 26.5086 58.0783 26.9063 58 26.9063C57.9217 26.9063 57.7386 26.5086 57.5931 26.0228C56.3272 21.7979 53.0272 19.6007 49.392 20.5619C47.1839 21.1458 45.6743 22.6452 44.3197 25.6C43.8346 26.6587 43.753 26.7412 43.5517 26.3777C43.4279 26.154 42.7148 25.3539 41.9674 24.5997C40.4915 23.1109 38.928 22.333 37.4111 22.333C36.7401 22.333 36.4878 22.4687 35.8513 23.1722C35.4338 23.6339 34.8891 24.429 34.641 24.9392C34.3927 25.4495 34.1382 25.8667 34.0751 25.8665C34.0121 25.8661 33.6945 25.3574 33.3693 24.7361C32.1638 22.4317 29.9428 20.7205 27.6941 20.3634C26.9076 20.2386 26.7925 20.2827 26.2549 20.9165C25.9335 21.2955 25.3218 22.3438 24.8956 23.2462C24.1558 24.8117 24.1086 24.8647 23.8609 24.4024C23.4675 23.6684 21.7675 21.9191 21.125 21.5874C20.3626 21.1934 19.0747 21.2157 18.4781 21.6331C18.2113 21.8196 17.8313 22.3334 17.6335 22.7747L17.2739 23.5769L16.5825 22.5912C15.1118 20.4943 14.1789 19.7952 12.8568 19.799C11.9219 19.8017 11.5893 19.5065 10.424 17.6387C9.29711 15.8331 8.56968 14.0319 8.15237 12.014C7.35168 8.1427 8.22459 5.43116 10.8363 3.67585C12.8928 2.29367 14.7007 2.2257 18.2067 3.39896ZM16.0213 26.6716C16.8911 28.3535 17.1985 29.1913 17.3093 30.1804L17.4545 31.4796H16.1751C14.6701 31.4796 13.8165 31.1021 13.4937 30.2941C12.9422 28.9136 12.6173 24.3093 12.9767 22.9672C13.1099 22.4704 13.1347 22.4823 13.996 23.4599C14.4815 24.0112 15.393 25.4564 16.0213 26.6716ZM103.149 25.1393C103.163 27.1321 102.888 29.3395 102.506 30.2941C102.183 31.1021 101.33 31.4796 99.8249 31.4796H98.5455L98.6908 30.1804C98.865 28.625 100.59 25.1015 101.962 23.4979C103.022 22.2592 103.13 22.4078 103.149 25.1393ZM29.6641 24.1129C30.7681 25.1042 31.7172 26.7279 32.3805 28.7595C32.7125 29.7769 32.8157 30.6242 32.8157 32.3327V34.5722L31.8271 34.7376C30.3429 34.9859 28.6876 34.9064 27.3709 34.5237L26.1927 34.1812L26.047 32.4335C25.8034 29.5131 26.3829 25.7877 27.3863 23.8231C27.9087 22.8003 28.2507 22.8438 29.6641 24.1129ZM53.2791 23.6414C54.1493 24.3041 55.0666 26.0873 55.6845 28.3167C56.2481 30.35 56.7895 34.7561 56.711 36.6686L56.6471 38.2198L55.9187 38.3817C53.2982 38.9644 47.1593 38.7453 45.387 38.0057L44.6178 37.6845L44.752 35.3357C45.0963 29.3158 46.8758 24.6267 49.3624 23.187C49.5995 23.0498 50.371 22.9729 51.1544 23.0084C52.2765 23.0593 52.6686 23.1762 53.2791 23.6414ZM66.7211 23.2579C69.1908 24.5334 71.3206 30.7073 71.3206 36.5913C71.3206 37.6883 71.2917 37.749 70.6442 38.0159C68.8792 38.7434 62.6558 38.9567 60.0813 38.3778L59.3529 38.214L59.382 35.6263C59.449 29.6698 61.0683 24.4588 63.2 23.3379C64.0811 22.8747 65.8993 22.8334 66.7211 23.2579ZM88.6043 23.805C89.6155 25.7846 90.1976 29.5016 89.9539 32.4231L89.809 34.1604L88.7767 34.503C87.6163 34.8877 85.6538 34.9883 84.1729 34.7389L83.1843 34.5722V32.3327C83.1843 30.6242 83.2875 29.7769 83.6195 28.7595C84.4962 26.0738 85.8817 24.0933 87.4511 23.282C87.7945 23.1044 88.0969 22.9587 88.1233 22.9579C88.1496 22.9573 88.366 23.3383 88.6043 23.805ZM22.5617 27.094L23.4265 28.5363L23.464 30.8869L23.5015 33.2376L22.6908 33.3054C21.5862 33.3979 20.5268 32.677 20.149 31.5758C19.8285 30.6412 19.5671 25.1824 19.7996 24.2773L19.9519 23.6842L20.8244 24.6681C21.3042 25.2092 22.0859 26.301 22.5617 27.094ZM96.1688 27.4449C96.1528 29.6711 96.0508 31.0212 95.8566 31.5758C95.4711 32.6774 94.4105 33.3975 93.3092 33.3054L92.4985 33.2376L92.536 30.8869L92.5735 28.5363L93.4464 27.0768C94.5027 25.3111 95.6355 23.9484 95.9567 24.0578C96.1207 24.1135 96.1854 25.1466 96.1688 27.4449ZM39.9556 26.0823C40.489 26.5515 41.2052 27.5208 41.6708 28.4041C42.5691 30.1091 42.5997 30.4161 42.2983 34.7069L42.1229 37.2064L40.6432 37.1363C38.7748 37.048 37.2203 36.7829 36.2886 36.3942L35.562 36.0909L35.4132 34.308C35.1258 30.8618 35.873 27.3929 37.3073 25.5148C37.7691 24.9098 37.8694 24.8695 38.427 25.0637C38.7638 25.1809 39.4517 25.6393 39.9556 26.0823ZM79.4218 26.7901C80.4269 28.93 80.8224 31.4821 80.5868 34.308L80.438 36.0909L79.7114 36.3942C78.7365 36.801 77.1467 37.0752 75.3792 37.1415L73.9223 37.1962L73.7498 35.0135C73.4038 30.6362 73.4436 30.0631 74.1943 28.615C75.0446 26.9753 76.0834 25.8174 77.1983 25.2664C78.0084 24.866 78.089 24.8608 78.4474 25.1847C78.658 25.3751 79.0965 26.0975 79.4218 26.7901ZM17.2056 34.1724C17.2056 34.2641 17.0691 34.6653 16.9024 35.064C16.7354 35.4627 16.3928 36.6104 16.1406 37.6145C15.6794 39.4515 15.0106 40.5464 14.0297 41.0708C13.3905 41.4124 12.7996 40.6887 12.677 39.4138C12.5757 38.3603 13.046 35.7633 13.562 34.5275L13.8365 33.8702L15.521 33.9379C16.4476 33.9754 17.2056 34.0808 17.2056 34.1724ZM102.416 34.4755C102.951 35.7554 103.426 38.3412 103.323 39.4138C103.2 40.6887 102.609 41.4124 101.97 41.0708C100.989 40.5464 100.321 39.4515 99.8594 37.6145C99.6072 36.6104 99.2646 35.4627 99.0976 35.064C98.9309 34.6653 98.7944 34.261 98.7944 34.1654C98.7944 34.0697 99.5202 33.9598 100.407 33.9207C101.295 33.8818 102.043 33.8311 102.07 33.808C102.097 33.7852 102.253 34.0853 102.416 34.4755ZM20.6398 35.5272C21.0977 35.692 22.0054 35.8309 22.6569 35.8359C23.3083 35.8408 23.8894 35.9225 23.9479 36.0173C24.0066 36.1121 23.9209 36.6341 23.7573 37.1769C23.5937 37.7199 23.3148 38.8655 23.1374 39.7227C22.7897 41.4038 21.7673 43.0764 20.5639 43.9322C19.7661 44.4995 19.4664 44.4817 18.8549 43.8306C18.3807 43.3257 18.3514 43.1531 18.3662 40.9723C18.3795 39.0343 18.4754 38.3684 18.9477 36.9364C19.2586 35.993 19.5794 35.2228 19.6603 35.2245C19.7411 35.2262 20.1819 35.3625 20.6398 35.5272ZM97.0523 36.9364C97.5246 38.3684 97.6205 39.0343 97.6338 40.9723C97.6486 43.1531 97.6193 43.3257 97.1451 43.8306C96.5336 44.4817 96.2339 44.4995 95.4361 43.9322C94.2296 43.0741 93.1939 41.3835 92.8732 39.7483C92.71 38.9164 92.4344 37.7754 92.2608 37.2126C92.0873 36.6501 91.9934 36.1121 92.0521 36.0173C92.1106 35.9225 92.6917 35.8398 93.3431 35.8334C93.9946 35.8269 94.8554 35.6976 95.2561 35.5463C95.6568 35.395 96.0976 35.2598 96.2356 35.2461C96.3742 35.2326 96.7405 35.9907 97.0523 36.9364ZM30.1645 37.4041C31.3336 37.4041 31.5502 37.4569 31.4439 37.7159C30.9248 38.9812 30.454 40.5445 30.198 41.8531C29.8236 43.7662 29.0372 45.0818 27.7747 45.9081C27.0689 46.3698 26.5146 46.2029 25.9006 45.3431C25.4806 44.7548 25.4286 44.4443 25.4415 42.601C25.4519 41.102 25.5905 40.0383 25.9381 38.7869L26.4201 37.0515L27.5886 37.2278C28.2313 37.3247 29.3904 37.4041 30.1645 37.4041ZM90.0706 38.8073C90.6911 41.0257 90.7579 44.1343 90.2068 45.1413C89.5216 46.3931 88.7024 46.4927 87.6521 45.452C86.6185 44.428 86.1148 43.4512 85.806 41.8728C85.5437 40.5333 85.0881 39.0218 84.5393 37.6714C84.4108 37.3561 84.5099 37.3278 85.4024 37.4259C85.9569 37.4868 86.9255 37.4475 87.5551 37.3388C89.6714 36.9729 89.5353 36.8933 90.0706 38.8073ZM36.8662 39.1754L38.315 39.5201L38.2688 40.5409C38.0813 44.6806 38.0191 44.976 37.0954 46.1079C35.9525 47.5081 34.9655 48.1715 34.2779 48.0012C32.4125 47.5393 31.9363 44.8041 33.033 40.8515C33.2655 40.0138 33.5956 39.0582 33.7665 38.7281L34.0772 38.1275L34.7474 38.4792C35.1158 38.6725 36.0693 38.9858 36.8662 39.1754ZM82.6304 39.7427C84.1342 44.0767 83.7579 47.4971 81.7221 48.0012C81.0336 48.1717 80.0471 47.5077 78.8992 46.1012L78.0234 45.0282L77.8837 42.7752C77.8067 41.5361 77.727 40.2986 77.7062 40.025C77.6725 39.576 77.7924 39.502 78.9433 39.2638C79.6443 39.1187 80.5809 38.8087 81.0247 38.5751C81.4684 38.3412 81.8855 38.146 81.9515 38.1408C82.0175 38.1358 82.323 38.8567 82.6304 39.7427ZM10.9141 42.1085C11.7812 43.5096 13.9756 44.1919 15.0955 43.4084C15.6479 43.022 15.8144 43.144 16.1445 44.1773C16.2755 44.5871 16.6846 45.2323 17.0541 45.6113C18.6174 47.2146 20.5397 47.2626 22.3438 45.7431L23.0072 45.1845L23.4043 46.0755C24.5461 48.6369 27.2169 49.4701 29.3877 47.9418L30.2817 47.3123L30.5235 47.8952C31.0957 49.2751 33.0251 50.5926 34.4808 50.5976C35.3398 50.6007 37.1239 49.811 37.6871 49.1786C38.2255 48.5739 38.3635 48.6141 38.6418 49.456C39.0058 50.5577 40.5288 51.7815 41.886 52.0627C44.3468 52.5731 46.4302 51.2582 47.5077 48.5155C47.8199 47.7206 48.0997 47.0704 48.1294 47.0704C48.1594 47.0704 48.3819 47.6651 48.6242 48.3923C49.2207 50.1827 50.1 51.5062 51.1572 52.2049C51.915 52.7059 52.2445 52.787 53.5241 52.787C54.8058 52.787 55.1329 52.7063 55.8976 52.2014C56.3855 51.8792 57.0347 51.204 57.3402 50.7007C57.646 50.1977 57.9428 49.7859 58 49.7859C58.0572 49.7859 58.354 50.1977 58.6598 50.7007C58.9653 51.204 59.6145 51.8792 60.1024 52.2014C60.8671 52.7063 61.1942 52.787 62.4759 52.787C63.7556 52.787 64.085 52.7059 64.8428 52.2049C65.9 51.5062 66.7793 50.1827 67.3758 48.3923C67.6181 47.6651 67.8406 47.0704 67.8706 47.0704C67.9003 47.0704 68.1801 47.7206 68.4923 48.5155C69.5698 51.2582 71.6532 52.5731 74.114 52.0627C75.4712 51.7815 76.9942 50.5577 77.3582 49.456C77.6365 48.6141 77.7745 48.5739 78.3129 49.1786C78.8761 49.811 80.6602 50.6007 81.5192 50.5976C82.9749 50.5926 84.9043 49.2751 85.4765 47.8952L85.7183 47.3123L86.6123 47.9418C88.7831 49.4701 91.4539 48.6369 92.5957 46.0755L92.9928 45.1845L93.6562 45.7431C95.4603 47.2626 97.3826 47.2146 98.9459 45.6113C99.3154 45.2323 99.7246 44.5871 99.8555 44.1773C100.186 43.144 100.352 43.022 100.904 43.4084C102.024 44.1919 104.219 43.5096 105.086 42.1085C105.33 41.7146 105.636 40.9172 105.767 40.3366L106.005 39.2806L106.686 40.2133C108.025 42.0485 108.968 44.4378 109.432 47.1743C109.812 49.4183 109.547 54.9167 108.978 56.589C108.211 58.8416 106.46 60.768 104.31 61.7242C102.158 62.6817 93.3962 64.5734 86.5696 65.5548C76.4745 67.006 71.1495 67.3384 58 67.3384C44.8538 67.3384 39.5249 67.0058 29.44 65.556C23.0606 64.6391 14.6487 62.8653 12.0201 61.8826C9.86449 61.0769 7.80833 58.8992 7.02199 56.589C6.45295 54.9167 6.18779 49.4183 6.56826 47.1743C7.03219 44.4378 7.97463 42.0485 9.31418 40.2133L9.99478 39.2806L10.2329 40.3366C10.3638 40.9172 10.6704 41.7146 10.9141 42.1085ZM44.3547 40.3017C45.0873 40.5946 45.8818 40.8341 46.1199 40.8341C46.6146 40.8341 46.6165 40.8513 46.3353 42.8089C45.892 45.8963 45.1604 48.0538 44.2034 49.0972C43.6404 49.711 42.2521 49.7395 41.5051 49.1529C40.8047 48.6024 40.6859 47.8229 40.7075 43.9204C40.7302 39.8356 40.7814 39.677 42.0569 39.7296C42.5878 39.7514 43.6219 40.0088 44.3547 40.3017ZM75.2752 42.6632C75.3324 44.1152 75.3164 46.0503 75.2396 46.9631C75.118 48.4072 75.0287 48.6837 74.5515 49.0938C73.7943 49.7443 72.3919 49.7459 71.7966 49.0972C70.8754 48.0929 70.1122 45.9021 69.7149 43.1207C69.416 41.0288 69.3881 41.0856 71.0084 40.4865C72.5927 39.9007 74.6312 39.572 74.963 39.8491C75.0775 39.9445 75.2179 41.2109 75.2752 42.6632ZM56.6754 42.7839C56.3439 47.4948 55.4285 50.0274 53.958 50.3031C52.8974 50.5018 52.0944 49.9761 51.4504 48.6617C50.8414 47.4183 50.1502 44.3653 50.0649 42.5418L50.0093 41.3537L52.7808 41.2076C54.3052 41.1272 55.6035 41.0103 55.6662 40.9478C55.7286 40.8852 56.0123 40.8341 56.2962 40.8341H56.8126L56.6754 42.7839ZM63.5156 41.2253L66.0132 41.3537L65.9464 42.4971C65.8367 44.3723 65.1365 47.4635 64.5502 48.6602C63.7751 50.2426 62.7727 50.7221 61.5549 50.0931C60.4377 49.516 59.6081 46.8103 59.3277 42.8293L59.1841 40.7867L60.1009 40.9415C60.6052 41.027 62.1419 41.1546 63.5156 41.2253Z" fill="#FFA500" fill-opacity="0.86" shape-rendering="crispEdges"/>
</g>
<defs>
<filter id="filter0_d_10_1103" x="0" y="0" width="116" height="78" filterUnits="userSpaceOnUse" color-interpolation-filters="sRGB">
<feFlood flood-opacity="0" result="BackgroundImageFix"/>
<feColorMatrix in="SourceAlpha" type="matrix" values="0 0 0 0 0 0 0 0 0 0 0 0 0 0 0 0 0 0 127 0" result="hardAlpha"/>
<feOffset dy="4"/>
<feGaussianBlur stdDeviation="2"/>
<feComposite in2="hardAlpha" operator="out"/>
<feColorMatrix type="matrix" values="0 0 0 0 1 0 0 0 0 0.647059 0 0 0 0 0 0 0 0 0.86 0"/>
<feBlend mode="normal" in2="BackgroundImageFix" result="effect1_dropShadow_10_1103"/>
<feBlend mode="normal" in="SourceGraphic" in2="effect1_dropShadow_10_1103" result="shape"/>
</filter>
</defs>
</svg>
