<svg width="114" height="77" viewBox="0 0 114 77" fill="none" xmlns="http://www.w3.org/2000/svg">
<g filter="url(#filter0_d_17_2889)">
<path d="M108.831 34.1036C107.415 32.6795 105.113 32.6747 103.69 34.0919L92.2599 45.4688V22.7301L108.784 6.20621C109.493 5.49613 109.849 4.56551 109.849 3.63537C109.849 2.70475 109.494 1.77461 108.784 1.06452C107.364 -0.354679 105.062 -0.355164 103.643 1.06501L87.1187 17.5894H26.7707L10.4218 1.2395C9.00259 -0.180187 6.70075 -0.180671 5.28106 1.23901C4.57146 1.9491 4.21618 2.87924 4.21618 3.80986C4.21618 4.74 4.57098 5.67062 5.28106 6.38022L21.6305 22.7301V45.4683L10.1998 34.0919C8.77672 32.6752 6.47536 32.6805 5.05859 34.1036C4.35335 34.8122 4.00049 35.739 4 36.6657C3.99903 37.5997 4.35626 38.5337 5.0707 39.2443L22.6692 56.7609C22.7695 56.8631 22.8752 56.9606 22.9881 57.0517C32.5784 64.7565 44.6367 69 56.9428 69C69.2493 69 81.3091 64.756 90.9013 57.0497C90.9023 57.0488 90.9027 57.0483 90.9037 57.0473C91.0021 56.9678 91.0976 56.883 91.1887 56.7924L108.819 39.2448C109.533 38.5337 109.89 37.5997 109.889 36.6662C109.889 35.739 109.537 34.8122 108.831 34.1036ZM28.9005 52.4364V24.8604H84.9894V52.4349C76.8387 58.5223 67.1791 61.73 56.9432 61.73C46.7074 61.7295 37.0492 58.5227 28.9005 52.4364Z" fill="#FFA500" fill-opacity="0.86"/>
<path d="M64.5855 39.6596H60.5799V35.654C60.5799 33.6459 58.9523 32.0188 56.9447 32.0188C54.9371 32.0188 53.3095 33.6459 53.3095 35.654V39.6596H49.3039C47.2963 39.6596 45.6687 41.2867 45.6687 43.2948C45.6687 45.303 47.2963 46.9301 49.3039 46.9301H53.3095V50.9357C53.3095 52.9438 54.9371 54.5709 56.9447 54.5709C58.9523 54.5709 60.5799 52.9438 60.5799 50.9357V46.9301H64.5855C66.5931 46.9301 68.2207 45.303 68.2207 43.2948C68.2207 41.2867 66.5931 39.6596 64.5855 39.6596Z" fill="#FFA500" fill-opacity="0.86"/>
</g>
<defs>
<filter id="filter0_d_17_2889" x="0" y="0" width="113.889" height="77" filterUnits="userSpaceOnUse" color-interpolation-filters="sRGB">
<feFlood flood-opacity="0" result="BackgroundImageFix"/>
<feColorMatrix in="SourceAlpha" type="matrix" values="0 0 0 0 0 0 0 0 0 0 0 0 0 0 0 0 0 0 127 0" result="hardAlpha"/>
<feOffset dy="4"/>
<feGaussianBlur stdDeviation="2"/>
<feComposite in2="hardAlpha" operator="out"/>
<feColorMatrix type="matrix" values="0 0 0 0 1 0 0 0 0 0.647059 0 0 0 0 0 0 0 0 0.86 0"/>
<feBlend mode="normal" in2="BackgroundImageFix" result="effect1_dropShadow_17_2889"/>
<feBlend mode="normal" in="SourceGraphic" in2="effect1_dropShadow_17_2889" result="shape"/>
</filter>
</defs>
</svg>
