<svg width="86" height="120" viewBox="0 0 86 120" fill="none" xmlns="http://www.w3.org/2000/svg">
<path d="M62.4072 89.1432V107.55L71.2261 111.22V84.3196C68.4559 86.2195 65.5014 87.8355 62.4072 89.1432ZM14.7739 84.3196V111.037L23.5928 107.366V89.1432C20.4986 87.8355 17.5441 86.2195 14.7739 84.3196ZM42.9999 93.059C38.8356 93.0613 34.6873 92.543 30.6515 91.5163V119.297L42.9999 114.157L55.3482 119.297V91.5163C51.3125 92.5429 47.1642 93.0612 42.9999 93.059ZM42.9999 0C19.2897 0 0 19.2897 0 43.0001C0 66.7105 19.2897 86 42.9999 86C66.7101 86 86 66.7103 86 42.9999C86 19.2895 66.7103 0 42.9999 0ZM42.9999 76.9137C24.203 76.9137 8.91043 61.6211 8.91043 42.8242C8.91043 24.0271 24.203 8.73451 42.9999 8.73451C61.7968 8.73451 77.0893 24.0271 77.0893 42.8242C77.0893 61.6213 61.797 76.9137 42.9999 76.9137ZM42.9999 15.7933C28.0953 15.7933 15.9692 27.9191 15.9692 42.8242C15.9692 57.7293 28.0953 69.8547 42.9999 69.8547C57.9045 69.8547 70.0306 57.7288 70.0306 42.824C70.0306 27.9191 57.9047 15.7933 42.9999 15.7933ZM54.1096 58.5998L42.9999 52.7591L31.8904 58.5998L34.0121 46.2293L25.0243 37.4684L37.4454 35.6634L42.9999 24.408L48.5546 35.6634L60.9757 37.4684L51.9879 46.2293L54.1096 58.5998Z" fill="#FFA500" fill-opacity="0.86"/>
</svg>
