<svg width="22" height="38" viewBox="0 0 22 38" fill="none" xmlns="http://www.w3.org/2000/svg">
<path d="M7.63308 26.7727V26.5597C7.65675 24.2988 7.8935 22.4995 8.34331 21.1619C8.79312 19.8243 9.43232 18.7412 10.2609 17.9126C11.0895 17.084 12.0838 16.3205 13.2439 15.6222C13.9423 15.196 14.5696 14.6929 15.126 14.1129C15.6823 13.5211 16.1203 12.8404 16.4399 12.071C16.7713 11.3016 16.9371 10.4493 16.9371 9.5142C16.9371 8.35417 16.6648 7.34801 16.1203 6.49574C15.5758 5.64346 14.8478 4.9865 13.9363 4.52486C13.0249 4.06321 12.0128 3.83238 10.9001 3.83238C9.92948 3.83238 8.99435 4.03362 8.09473 4.43608C7.19511 4.83854 6.44345 5.47183 5.83976 6.33594C5.23606 7.20005 4.88687 8.33049 4.79217 9.72727H0.317738C0.412435 7.71496 0.933268 5.99266 1.88024 4.56037C2.83904 3.12808 4.0997 2.03314 5.6622 1.27557C7.23654 0.517991 8.98251 0.139203 10.9001 0.139203C12.9835 0.139203 14.7945 0.553502 16.3334 1.3821C17.884 2.2107 19.0796 3.34706 19.92 4.79119C20.7723 6.23532 21.1984 7.88068 21.1984 9.72727C21.1984 11.0294 20.9972 12.2071 20.5947 13.2607C20.2041 14.3142 19.6359 15.2552 18.8902 16.0838C18.1563 16.9124 17.2685 17.6463 16.2268 18.2855C15.1852 18.9366 14.3506 19.6231 13.7233 20.3452C13.0959 21.0554 12.6402 21.9018 12.3561 22.8842C12.072 23.8667 11.9181 25.0919 11.8944 26.5597V26.7727H7.63308ZM9.90581 37.2841C9.02986 37.2841 8.2782 36.9704 7.65084 36.343C7.02347 35.7157 6.70978 34.964 6.70978 34.0881C6.70978 33.2121 7.02347 32.4605 7.65084 31.8331C8.2782 31.2057 9.02986 30.892 9.90581 30.892C10.7818 30.892 11.5334 31.2057 12.1608 31.8331C12.7881 32.4605 13.1018 33.2121 13.1018 34.0881C13.1018 34.6681 12.9539 35.2008 12.6579 35.6861C12.3738 36.1714 11.9891 36.562 11.5038 36.858C11.0303 37.142 10.4977 37.2841 9.90581 37.2841Z" fill="black"/>
</svg>
