<svg width="52" height="51" viewBox="0 0 52 51" fill="none" xmlns="http://www.w3.org/2000/svg">
<path d="M49.2445 3.16138C50.3188 3.45435 51.1 4.33325 51.1 5.40747C51.1 30.5051 30.7875 50.72 5.7875 50.72C4.61563 50.72 3.73672 50.0364 3.44375 48.9622L1.1 38.8059C0.904688 37.7317 1.39297 36.5598 2.46719 36.0715L13.4047 31.384C14.3813 30.9934 15.4555 31.2864 16.1391 32.0676L21.0219 38.0247C28.6391 34.4114 34.7914 28.1614 38.307 20.7395L32.35 15.8567C31.5688 15.1731 31.2758 14.0989 31.6664 13.1223L36.3539 2.18481C36.8422 1.1106 38.0141 0.524658 39.0883 0.817627L49.2445 3.16138Z" fill="#E4A718"/>
</svg>
