<svg width="31" height="30" viewBox="0 0 31 30" fill="none" xmlns="http://www.w3.org/2000/svg">
<rect x="0.450195" width="30" height="30" rx="15" fill="#2CA5E0"/>
<path d="M15.5554 7.60938C19.5691 7.60938 22.8211 10.8613 22.8211 14.875C22.8211 18.8887 19.5691 22.1406 15.5554 22.1406C11.5418 22.1406 8.2898 18.8887 8.2898 14.875C8.2898 10.8613 11.5418 7.60938 15.5554 7.60938ZM19.1004 12.5898C19.2175 12.1211 18.9246 11.916 18.6023 12.0332L11.6004 14.7285C11.1316 14.9043 11.1316 15.1973 11.5125 15.3145L13.2996 15.8711L17.4597 13.2344C17.6648 13.1172 17.8406 13.2051 17.6941 13.3223L14.325 16.3691L14.2078 18.2148C14.3836 18.2148 14.4714 18.127 14.5593 18.0391L15.4382 17.1895L17.2546 18.5371C17.6062 18.7129 17.8406 18.625 17.9285 18.2148L19.1004 12.5898Z" fill="white"/>
</svg>
