<svg width="86" height="89" viewBox="0 0 86 89" fill="none" xmlns="http://www.w3.org/2000/svg">
<g filter="url(#filter0_d_10_1097)">
<path fill-rule="evenodd" clip-rule="evenodd" d="M60.5149 0.544094C59.9956 1.06132 59.9495 1.48253 59.9495 5.7093C59.9495 9.81021 60.0058 10.3621 60.4666 10.7774C61.1004 11.3486 62.1998 11.3785 62.9345 10.8444C63.4307 10.4834 63.4917 10.0169 63.5726 5.97847C63.6565 1.77 63.6269 1.46761 63.0572 0.746535C62.3346 -0.168532 61.3121 -0.249903 60.5149 0.544094ZM70.7825 8.48913L67.2889 11.9289L68.5661 13.201L69.8434 14.4731L73.236 11.1028C76.1634 8.1949 76.6287 7.60869 76.6287 6.82906C76.6287 5.85289 75.8137 5.04904 74.8242 5.04904C74.5025 5.04904 72.8329 6.47007 70.7825 8.48913ZM19.8003 12.9152C15.8072 13.4556 12.5468 15.1027 9.45778 18.1404C7.63664 19.9311 6.92424 20.8856 5.98965 22.7873C4.03027 26.7739 3.53894 30.5521 4.4235 34.8358C4.67001 36.0293 5.80024 39.2866 6.93527 42.0741C8.07058 44.8615 9.14003 47.8089 9.31191 48.6237C9.48407 49.4385 9.75489 52.7961 9.91349 56.085C10.3983 66.1285 11.3058 71.214 13.3231 75.1942C15.1522 78.8026 18.1239 80.9166 21.3794 80.9247C24.7681 80.9335 26.0289 79.0194 28.8703 69.5528C30.7039 63.4447 31.4757 61.4617 32.8501 59.3286C35.0184 55.9634 38.0586 56.0546 40.2543 59.551C41.4778 61.4991 42.6176 64.531 44.2694 70.23C45.7479 75.3321 47.3732 78.9783 48.643 80.0426C50.9662 81.9896 55.4069 80.8569 58.0512 77.6426C61.1408 73.8874 62.4638 68.0876 63.0513 55.7238C63.3823 48.756 63.5635 47.8953 65.8593 42.3874C69.0182 34.809 69.512 32.0517 68.5531 27.3508C67.8413 23.8611 66.2155 20.8462 63.6707 18.2967C60.4451 15.0652 57.4058 13.5496 52.9256 12.9386C49.5618 12.48 47.2728 12.9116 42.8585 14.8372C39.2264 16.4212 39.1311 16.4454 36.4856 16.4488C33.9719 16.4519 33.6462 16.3829 31.3971 15.3696C26.2215 13.0377 23.3637 12.4329 19.8003 12.9152ZM24.6123 16.6172C25.312 16.7777 27.2202 17.4897 28.8528 18.1998C32.5802 19.8205 34.1689 20.2465 36.4856 20.2465C38.8136 20.2465 40.3903 19.821 44.2041 18.1627C48.1562 16.4443 49.9443 16.1078 52.8137 16.5431C60.3063 17.6798 65.6846 24.275 65.2532 31.7972C65.1059 34.3636 64.4981 36.3477 62.0966 42.1005C60.0982 46.8879 59.7316 48.7634 59.3952 55.9195C58.9564 65.2532 58.3119 69.3113 56.7189 72.764C55.4105 75.6002 53.3672 77.4097 51.4734 77.4097C50.3715 77.4097 49.9997 76.4916 46.5118 65.1619C44.6547 59.1292 42.6032 55.6768 39.954 54.1256C38.8009 53.4505 38.2991 53.3364 36.4856 53.3364C34.6832 53.3364 34.1678 53.4522 33.0463 54.1088C30.2618 55.739 28.3309 59.0282 26.3097 65.5843C22.9662 76.4291 22.5614 77.4097 21.4275 77.4097C20.3337 77.4097 18.3526 76.2227 17.4878 75.0494C15.0673 71.7653 14.096 67.123 13.5804 56.3776C13.1721 47.8756 12.929 46.7502 10.0622 40.1032C7.11393 33.2666 6.90728 29.0083 9.2907 24.2069C10.3576 22.0572 13.3104 19.1304 15.5409 18.0115C18.5151 16.5192 21.9114 15.9972 24.6123 16.6172ZM70.6002 18.7911C69.9745 19.4795 69.9986 20.6136 70.651 21.2018C71.1079 21.6137 71.8239 21.6644 76.2238 21.5974L81.272 21.5203L81.7068 20.746C82.0977 20.0494 82.0977 19.894 81.7068 19.1974L81.272 18.4231L76.1727 18.3465C71.513 18.2767 71.0327 18.315 70.6002 18.7911ZM18.0902 20.6381C13.9368 21.7537 10.8176 25.5018 10.5405 29.7105C10.3751 32.2192 10.7 32.9234 12.0221 32.9234C13.3279 32.9234 13.7539 32.4014 13.9747 30.5304C14.204 28.5877 14.6637 27.4482 15.7238 26.1961C16.7107 25.0302 19.0087 23.92 20.4426 23.9163C21.743 23.9129 22.6335 23.1173 22.6335 21.9586C22.6335 20.3825 20.909 19.8813 18.0902 20.6381ZM13.1348 36.2359C12.9638 36.3497 12.6743 36.7256 12.4917 37.071C12.2084 37.6066 12.3506 38.1655 13.4574 40.8721C14.7623 44.0622 15.458 45.0304 16.4455 45.0304C17.1898 45.0304 18.1103 44.0365 18.1103 43.233C18.1103 42.4176 15.9711 37.2008 15.3546 36.5133C14.9051 36.0118 13.6985 35.8612 13.1348 36.2359Z" fill="#FFA500" fill-opacity="0.86" shape-rendering="crispEdges"/>
</g>
<defs>
<filter id="filter0_d_10_1097" x="0" y="0" width="86" height="89" filterUnits="userSpaceOnUse" color-interpolation-filters="sRGB">
<feFlood flood-opacity="0" result="BackgroundImageFix"/>
<feColorMatrix in="SourceAlpha" type="matrix" values="0 0 0 0 0 0 0 0 0 0 0 0 0 0 0 0 0 0 127 0" result="hardAlpha"/>
<feOffset dy="4"/>
<feGaussianBlur stdDeviation="2"/>
<feComposite in2="hardAlpha" operator="out"/>
<feColorMatrix type="matrix" values="0 0 0 0 1 0 0 0 0 0.647059 0 0 0 0 0 0 0 0 0.25 0"/>
<feBlend mode="normal" in2="BackgroundImageFix" result="effect1_dropShadow_10_1097"/>
<feBlend mode="normal" in="SourceGraphic" in2="effect1_dropShadow_10_1097" result="shape"/>
</filter>
</defs>
</svg>
