<svg width="31" height="30" viewBox="0 0 31 30" fill="none" xmlns="http://www.w3.org/2000/svg">
<rect x="0.450195" width="30" height="30" rx="15" fill="#25D366"/>
<path d="M20.1254 10.2461C21.3559 11.4766 22.1176 13.0879 22.1176 14.8457C22.1176 18.4199 19.1294 21.3496 15.5258 21.3496C14.4419 21.3496 13.3872 21.0566 12.4204 20.5586L8.99264 21.4375L9.90084 18.0684C9.3442 17.1016 9.02193 15.9883 9.02193 14.8164C9.02193 11.2422 11.9516 8.3125 15.5258 8.3125C17.2837 8.3125 18.9243 9.01562 20.1254 10.2461ZM15.5258 20.2363C18.5141 20.2363 21.0044 17.8047 21.0044 14.8457C21.0044 13.3809 20.3891 12.0332 19.3637 11.0078C18.3383 9.98242 16.9907 9.42578 15.5551 9.42578C12.5669 9.42578 10.1352 11.8574 10.1352 14.8164C10.1352 15.8418 10.4282 16.8379 10.9555 17.7168L11.102 17.9219L10.5454 19.9141L12.5962 19.3574L12.7719 19.4746C13.6215 19.9727 14.559 20.2363 15.5258 20.2363ZM18.5141 16.1934C18.6606 16.2812 18.7778 16.3105 18.8071 16.3984C18.8657 16.457 18.8657 16.7793 18.7192 17.1602C18.5727 17.541 17.9282 17.8926 17.6352 17.9219C17.1079 18.0098 16.6977 17.9805 15.6723 17.5117C14.0317 16.8086 12.977 15.168 12.8891 15.0801C12.8012 14.9629 12.2446 14.2012 12.2446 13.3809C12.2446 12.5898 12.6547 12.209 12.8012 12.0332C12.9477 11.8574 13.1235 11.8281 13.2407 11.8281C13.3286 11.8281 13.4458 11.8281 13.5337 11.8281C13.6508 11.8281 13.768 11.7988 13.9145 12.1211C14.0317 12.4434 14.3833 13.2344 14.4126 13.3223C14.4419 13.4102 14.4712 13.498 14.4126 13.6152C14.1196 14.2305 13.768 14.2012 13.9438 14.4941C14.5883 15.5781 15.2036 15.959 16.1704 16.4277C16.3169 16.5156 16.4047 16.4863 16.5219 16.3984C16.6098 16.2812 16.9321 15.9004 17.02 15.7539C17.1372 15.5781 17.2544 15.6074 17.4008 15.666C17.5473 15.7246 18.3383 16.1055 18.5141 16.1934Z" fill="white"/>
</svg>
