<svg width="95" height="94" viewBox="0 0 95 94" fill="none" xmlns="http://www.w3.org/2000/svg">
<g filter="url(#filter0_d_15_2857)">
<g filter="url(#filter1_d_15_2857)">
<path d="M59.7496 43.8731L60.2269 43.3956C61.813 41.8095 62.6866 39.7008 62.6866 37.4583C62.6866 35.7862 62.2003 34.189 61.2958 32.827L73.4961 20.6286C75.407 22.0259 77.6727 22.7249 79.9383 22.7249C82.7344 22.7249 85.5303 21.661 87.658 19.5331C87.6581 19.5331 87.6581 19.5331 87.6581 19.5331C91.9159 15.2754 91.9159 8.34759 87.658 4.08966C83.4024 -0.16607 76.4758 -0.166409 72.2167 4.08966C68.3628 7.94352 67.9976 13.9848 71.1207 18.2541L58.9198 30.4533C55.6618 28.2988 51.2207 28.6544 48.3541 31.521L47.8759 31.9992L46.5066 30.6299C44.9204 29.0437 42.8117 28.1699 40.5691 28.1699C38.8973 28.1699 37.3 28.6563 35.9377 29.5607L27.3209 20.9417C24.6429 18.2639 20.6403 17.2229 16.8746 18.2251C14.0582 18.9725 11.1175 18.0682 9.20148 15.8657C6.70467 12.9894 6.74776 8.68804 9.30241 5.86078C10.7604 4.24691 12.7566 3.35837 14.9233 3.35837C15.8509 3.35837 16.6025 2.60656 16.6025 1.67919C16.6025 0.751809 15.8509 0 14.9233 0C11.8399 0 8.88275 1.31567 6.81035 3.6096C3.11916 7.69518 3.05674 13.9105 6.66633 18.0689C9.43117 21.2464 13.6728 22.55 17.7372 21.4707C20.35 20.7757 23.112 21.4827 24.9459 23.3166L33.5642 31.9369C31.4111 35.1951 31.7666 39.6369 34.6317 42.5043L36.0013 43.8736L16.1279 63.7473C15.4721 64.4031 15.4721 65.4664 16.1279 66.122C16.7837 66.7776 17.8468 66.778 18.5027 66.122L50.7291 33.8957C52.6926 31.9319 55.8881 31.9319 57.8518 33.8957C59.8163 35.8602 59.8163 39.0562 57.8511 41.0216L16.9272 81.9458L9.80419 74.8207L13.9693 70.6559C14.6251 70.0001 14.6251 68.9369 13.9693 68.2813C13.3135 67.6255 12.2504 67.6255 11.5945 68.2813L6.24225 73.6335C5.58646 74.2893 5.58646 75.3524 6.24225 76.0082L15.7398 85.5081C16.0546 85.8231 16.4816 86 16.927 86C17.3723 86 17.7994 85.8231 18.1145 85.5084L49.0635 54.5616L57.3749 46.2485L85.0565 73.9298L77.9314 81.0551L53.3499 56.4727C52.6939 55.8169 51.6308 55.8167 50.975 56.4727C50.3193 57.1285 50.3193 58.1917 50.975 58.8474L76.7443 84.6167C77.0593 84.9317 77.4863 85.1086 77.9319 85.1086C78.3776 85.1086 78.8042 84.9317 79.1195 84.6167L88.6194 75.1168C89.2752 74.461 89.2752 73.3977 88.6194 72.7421L59.7496 43.8731ZM74.5914 6.46501C76.066 4.99142 78.002 4.25454 79.9383 4.25454C81.8742 4.25454 83.8102 4.99142 85.2834 6.46467C88.2318 9.41288 88.2318 14.2102 85.2834 17.1588C82.3368 20.1056 77.5399 20.1053 74.5919 17.1588C71.6433 14.2101 71.6433 9.41271 74.5914 6.46501ZM38.376 41.4989L37.007 40.1303C35.0442 38.1658 35.0442 34.9698 37.0059 33.0053C37.006 33.0051 37.0064 33.0051 37.0064 33.0048C37.0065 33.0046 37.0069 33.0043 37.0069 33.0041C37.959 32.0526 39.2238 31.5285 40.5693 31.5285C41.9147 31.5285 43.1799 32.0526 44.1318 33.0046L45.501 34.3739L38.376 41.4989Z" fill="#FFA500" fill-opacity="0.86" shape-rendering="crispEdges"/>
</g>
</g>
<defs>
<filter id="filter0_d_15_2857" x="0" y="0" width="94.8514" height="94" filterUnits="userSpaceOnUse" color-interpolation-filters="sRGB">
<feFlood flood-opacity="0" result="BackgroundImageFix"/>
<feColorMatrix in="SourceAlpha" type="matrix" values="0 0 0 0 0 0 0 0 0 0 0 0 0 0 0 0 0 0 127 0" result="hardAlpha"/>
<feOffset dy="4"/>
<feGaussianBlur stdDeviation="2"/>
<feComposite in2="hardAlpha" operator="out"/>
<feColorMatrix type="matrix" values="0 0 0 0 1 0 0 0 0 0.647059 0 0 0 0 0 0 0 0 0.1 0"/>
<feBlend mode="normal" in2="BackgroundImageFix" result="effect1_dropShadow_15_2857"/>
<feBlend mode="normal" in="SourceGraphic" in2="effect1_dropShadow_15_2857" result="shape"/>
</filter>
<filter id="filter1_d_15_2857" x="0" y="0" width="94.8514" height="94" filterUnits="userSpaceOnUse" color-interpolation-filters="sRGB">
<feFlood flood-opacity="0" result="BackgroundImageFix"/>
<feColorMatrix in="SourceAlpha" type="matrix" values="0 0 0 0 0 0 0 0 0 0 0 0 0 0 0 0 0 0 127 0" result="hardAlpha"/>
<feOffset dy="4"/>
<feGaussianBlur stdDeviation="2"/>
<feComposite in2="hardAlpha" operator="out"/>
<feColorMatrix type="matrix" values="0 0 0 0 1 0 0 0 0 0.647059 0 0 0 0 0 0 0 0 0.86 0"/>
<feBlend mode="normal" in2="BackgroundImageFix" result="effect1_dropShadow_15_2857"/>
<feBlend mode="normal" in="SourceGraphic" in2="effect1_dropShadow_15_2857" result="shape"/>
</filter>
</defs>
</svg>
