<svg width="31" height="30" viewBox="0 0 31 30" fill="none" xmlns="http://www.w3.org/2000/svg">
<rect x="0.450195" width="30" height="30" rx="15" fill="#3B5998"/>
<path d="M22.8158 14.875C22.8158 18.5078 20.1498 21.5254 16.6635 22.0527V16.9844H18.3627L18.685 14.875H16.6635V13.5273C16.6635 12.9414 16.9564 12.3848 17.8646 12.3848H18.7729V10.5977C18.7729 10.5977 17.9525 10.4512 17.1322 10.4512C15.4916 10.4512 14.4076 11.4766 14.4076 13.293V14.875H12.5619V16.9844H14.4076V22.0527C10.9213 21.5254 8.28457 18.5078 8.28457 14.875C8.28457 10.8613 11.5365 7.60938 15.5502 7.60938C19.5639 7.60938 22.8158 10.8613 22.8158 14.875Z" fill="white"/>
</svg>
