<svg width="18" height="17" viewBox="0 0 18 17" fill="none" xmlns="http://www.w3.org/2000/svg">
<path d="M16.7612 14.3438C17.0425 14.6562 17.0425 15.125 16.73 15.4062L15.855 16.2812C15.5737 16.5938 15.105 16.5938 14.7925 16.2812L11.6987 13.1875C11.5425 13.0312 11.48 12.8438 11.48 12.6562V12.125C10.355 13 8.97998 13.5 7.47998 13.5C3.88623 13.5 0.97998 10.5938 0.97998 7C0.97998 3.4375 3.88623 0.5 7.47998 0.5C11.0425 0.5 13.98 3.4375 13.98 7C13.98 8.53125 13.4487 9.90625 12.605 11H13.105C13.2925 11 13.48 11.0938 13.6362 11.2188L16.7612 14.3438ZM7.47998 11C9.66748 11 11.48 9.21875 11.48 7C11.48 4.8125 9.66748 3 7.47998 3C5.26123 3 3.47998 4.8125 3.47998 7C3.47998 9.21875 5.26123 11 7.47998 11Z" fill="white"/>
</svg>
